<?xml version="1.0" standalone="no"?>
<!DOCTYPE svg PUBLIC "-//W3C//DTD SVG 20010904//EN"
 "http://www.w3.org/TR/2001/REC-SVG-20010904/DTD/svg10.dtd">
<svg version="1.0" xmlns="http://www.w3.org/2000/svg"
 width="1166.000000pt" height="1280.000000pt" viewBox="0 0 1166.000000 1280.000000"
 preserveAspectRatio="xMidYMid meet">
<metadata>
Created by potrace 1.15, written by Peter Selinger 2001-2017
</metadata>
<g transform="translate(0.000000,1280.000000) scale(0.100000,-0.100000)"
fill="#000000" stroke="none">
<path d="M5915 12794 c-954 -70 -1575 -292 -2202 -789 -125 -99 -368 -339
-488 -483 -213 -254 -360 -482 -520 -807 -164 -333 -248 -575 -315 -905 -75
-371 -97 -656 -120 -1586 -11 -418 -22 -613 -46 -834 -54 -500 -174 -915 -361
-1255 -146 -265 -285 -446 -752 -983 -398 -458 -553 -653 -714 -898 -190 -289
-310 -560 -368 -834 -33 -152 -33 -440 -1 -589 79 -364 257 -679 500 -887 464
-396 1177 -529 2212 -413 300 34 455 17 636 -71 195 -94 360 -251 663 -630
233 -292 396 -461 521 -543 458 -298 1013 -367 1540 -190 128 43 231 94 330
164 112 79 312 285 537 554 451 540 649 672 1063 707 114 9 173 8 375 -7 310
-23 694 -30 855 -15 256 23 748 110 1033 181 612 153 1008 421 1211 819 66
129 97 215 128 351 32 146 32 413 -1 569 -54 256 -176 535 -346 790 -53 80
-196 277 -318 438 -122 161 -304 402 -405 535 -293 387 -471 664 -607 942
-191 390 -324 829 -394 1295 -51 344 -61 518 -71 1280 -11 829 -26 1080 -85
1462 -161 1038 -607 1724 -1429 2198 -373 214 -831 356 -1346 416 -127 14
-601 27 -715 18z m630 -474 c614 -53 1146 -231 1600 -535 497 -334 794 -736
934 -1265 78 -297 116 -606 141 -1145 5 -126 17 -381 25 -565 56 -1238 186
-1903 535 -2725 184 -434 378 -785 706 -1280 408 -614 584 -970 668 -1347 110
-496 28 -840 -270 -1128 -243 -235 -606 -406 -1139 -536 -450 -109 -782 -121
-1285 -44 -238 36 -298 42 -445 42 -153 1 -180 -2 -270 -26 -128 -33 -277
-106 -385 -187 -47 -35 -157 -138 -245 -229 -368 -381 -489 -490 -672 -603
-213 -131 -404 -207 -638 -253 -128 -26 -395 -26 -530 0 -216 40 -449 134
-635 256 -146 96 -225 165 -480 415 -130 127 -271 261 -315 299 -173 147 -356
250 -535 298 -73 19 -110 23 -255 23 -106 0 -226 -7 -320 -19 -195 -24 -521
-18 -727 14 -817 124 -1352 531 -1495 1140 -31 132 -42 400 -23 560 29 256
134 555 290 827 135 235 297 459 695 963 321 406 452 598 569 835 202 407 310
835 366 1450 13 154 27 401 45 815 24 567 51 891 95 1140 210 1185 1031 2153
2180 2568 339 122 737 209 1110 241 140 12 567 12 705 1z"/>
<path d="M4965 10460 c-311 -43 -546 -216 -676 -497 -126 -270 -207 -629 -254
-1118 -45 -469 -25 -732 70 -934 126 -264 331 -401 604 -401 212 0 410 75 603
228 307 244 449 588 553 1342 22 157 31 482 16 592 -45 335 -206 585 -456 709
-137 67 -319 99 -460 79z"/>
<path d="M7050 10451 c-217 -47 -408 -183 -516 -367 -145 -248 -175 -535 -109
-1049 74 -581 195 -922 416 -1168 116 -130 313 -255 489 -312 111 -36 298 -46
404 -21 172 40 339 178 430 354 114 222 134 473 81 1007 -44 445 -132 819
-256 1083 -112 240 -303 398 -564 467 -96 26 -274 29 -375 6z"/>
<path d="M7815 6626 c-73 -14 -162 -39 -353 -100 -139 -44 -292 -76 -364 -76
-87 1 -182 18 -393 71 -169 44 -219 52 -321 57 -153 6 -211 -6 -484 -103 -249
-88 -343 -109 -460 -102 -114 7 -191 33 -410 137 -102 49 -213 96 -246 104
-299 77 -774 -129 -774 -335 0 -82 98 -196 193 -224 29 -9 113 -20 187 -26
201 -15 255 -29 420 -110 244 -120 326 -124 699 -35 383 92 420 90 936 -62
113 -33 129 -35 270 -36 139 -1 156 1 235 27 47 16 168 69 270 119 340 165
381 177 665 188 230 9 280 22 359 92 141 124 106 292 -80 384 -69 35 -82 38
-177 40 -58 2 -132 -2 -172 -10z"/>
</g>
</svg>

