<!--?xml version="1.0" encoding="utf-8"?-->
<!-- Generator: Adobe Illustrator 18.1.1, SVG Export Plug-In . SVG Version: 6.00 Build 0)  -->

<svg version="1.1" id="_x32_" xmlns="http://www.w3.org/2000/svg" xmlns:xlink="http://www.w3.org/1999/xlink" x="0px" y="0px" viewBox="0 0 512 512" style="width: 128px; height: 128px; opacity: 1;" xml:space="preserve">
<style type="text/css">
	.st0{fill:#4B4B4B;}
</style>
<g>
	<path class="st0" d="M415.979,170.171l-39.437-30.815c-4.141-3.243-9.236-4.99-14.477-4.99h-12.86
		c-6.163,0-12.051,2.402-16.451,6.704l-18.716,18.344h-33.629v-50.817l18.327-18.715c4.302-4.392,6.713-10.296,6.713-16.443v-12.86
		c0-5.249-1.747-10.352-4.982-14.485L269.653,6.656C266.369,2.451,261.337,0,255.999,0c-5.322,0-10.368,2.451-13.652,6.656
		l-30.815,39.438c-3.252,4.133-4.998,9.236-4.998,14.485v12.86c0,6.147,2.426,12.051,6.712,16.443l18.344,18.715v50.817h-33.63
		l-18.716-18.344c-4.384-4.302-10.287-6.704-16.434-6.704h-12.86c-5.257,0-10.353,1.746-14.494,4.99L96.02,170.171
		c-4.206,3.284-6.648,8.314-6.648,13.636c0,5.346,2.442,10.368,6.648,13.645l39.437,30.839c4.141,3.219,9.237,4.99,14.494,4.99
		h12.86c6.147,0,12.05-2.418,16.434-6.729l18.716-18.319h33.63v156.348h48.819V208.233h33.629l18.716,18.319
		c4.4,4.311,10.288,6.729,16.451,6.729h12.86c5.241,0,10.336-1.771,14.477-4.99l39.437-30.839c4.19-3.276,6.649-8.299,6.649-13.645
		C422.628,178.485,420.169,173.455,415.979,170.171z" style="fill: rgb(85, 85, 85);"></path>
	<rect x="174.877" y="380.094" class="st0" width="162.244" height="54.957" style="fill: rgb(85, 85, 85);"></rect>
	<rect x="125.153" y="457.043" class="st0" width="261.71" height="54.957" style="fill: rgb(85, 85, 85);"></rect>
</g>
</svg>
